<svg width="1440" height="4377" viewBox="0 0 1440 4377" fill="none" xmlns="http://www.w3.org/2000/svg">
<g clip-path="url(#clip0_184_548)">
<rect width="1440" height="4377" fill="#0E141A"/>
<g filter="url(#filter0_f_184_548)">
<ellipse cx="355" cy="4363.5" rx="355" ry="38.5" fill="#FF7D54"/>
</g>
<g filter="url(#filter1_f_184_548)">
<ellipse cx="1085" cy="4363.5" rx="355" ry="38.5" fill="#7A83FF"/>
</g>
<g filter="url(#filter2_f_184_548)">
<ellipse cx="720" cy="4363.5" rx="355" ry="38.5" fill="#FFCF25"/>
</g>
<g filter="url(#filter3_f_184_548)">
<ellipse cx="125.5" cy="3156.5" rx="490.5" ry="216.5" fill="#45AB92"/>
</g>
<g filter="url(#filter4_f_184_548)">
<ellipse cx="1413.2" cy="1816.98" rx="307.929" ry="413.817" transform="rotate(90 1413.2 1816.98)" fill="#FCB663"/>
</g>
<g filter="url(#filter5_f_184_548)">
<path d="M1591.03 2303.01C1646.7 2326.64 1695.79 2358.8 1744.48 2392.78C1755.11 2432.41 1775.16 2431.95 1809.12 2443.27C1822.79 2447.83 1836.29 2441.16 1847.96 2434.06C1862.61 2425.16 1868.16 2419.4 1878.17 2403.38C1902.49 2364.43 1936.48 2315.91 1934.71 2267.38C1932.96 2219.37 1897.01 2177.91 1865.29 2145.73C1792.76 2072.15 1702.46 2023.98 1610.49 1979.4C1499.62 1925.66 1386.67 1872.28 1270.34 1831.55C1051.85 1755.06 826.73 1748.77 605.146 1810.96C566.34 1821.85 404.314 1860.73 419.751 1933.81C423.836 1953.15 449.508 1959.75 465.002 1966.49C555.632 2005.92 655.375 2022.4 751.111 2044.01C832.347 2062.35 913.487 2086.41 993.502 2109.31C1193.5 2166.55 1399.06 2221.54 1591.03 2303.01Z" fill="#FB645A"/>
</g>
<g filter="url(#filter6_f_184_548)">
<path d="M53.7411 2662.89C1.15801 2652.88 -40.779 2628.82 -81.5667 2602.17C-77.8871 2553.04 -100.326 2561.49 -133.61 2559.54C-147.008 2558.75 -164.613 2573 -180.349 2587.11C-200.092 2604.8 -208.514 2614.72 -225.888 2640.18C-268.119 2702.05 -324.826 2780.59 -341.831 2845.15C-358.655 2909.02 -334.937 2950.72 -312.292 2981.59C-260.515 3052.18 -179.074 3081.66 -94.3649 3105.65C7.7477 3134.57 112.312 3162.21 225.576 3171.5C438.299 3188.95 685.833 3109.4 956.206 2939.17C1003.56 2909.36 1198.68 2793.74 1210.1 2701.51C1213.13 2677.1 1187.2 2678.26 1172.63 2675.25C1087.4 2657.66 983.077 2674.49 885.213 2682.85C802.17 2689.94 721.471 2689.31 641.567 2689.79C441.855 2691 235.071 2697.41 53.7411 2662.89Z" fill="#59AB45"/>
<path d="M53.7411 2662.89C1.15801 2652.88 -40.779 2628.82 -81.5667 2602.17C-77.8871 2553.04 -100.326 2561.49 -133.61 2559.54C-147.008 2558.75 -164.613 2573 -180.349 2587.11C-200.092 2604.8 -208.514 2614.72 -225.888 2640.18C-268.119 2702.05 -324.826 2780.59 -341.831 2845.15C-358.655 2909.02 -334.937 2950.72 -312.292 2981.59C-260.515 3052.18 -179.074 3081.66 -94.3649 3105.65C7.7477 3134.57 112.312 3162.21 225.576 3171.5C438.299 3188.95 685.833 3109.4 956.206 2939.17C1003.56 2909.36 1198.68 2793.74 1210.1 2701.51C1213.13 2677.1 1187.2 2678.26 1172.63 2675.25C1087.4 2657.66 983.077 2674.49 885.213 2682.85C802.17 2689.94 721.471 2689.31 641.567 2689.79C441.855 2691 235.071 2697.41 53.7411 2662.89Z" fill="#59AB45"/>
</g>
<g filter="url(#filter7_f_184_548)">
<ellipse cx="1034.65" cy="89.6195" rx="480.396" ry="224.62" fill="#820F0F"/>
</g>
<g filter="url(#filter8_f_184_548)">
<ellipse cx="239.481" cy="280.004" rx="599.469" ry="350.255" transform="rotate(-42.9305 239.481 280.004)" fill="#312221"/>
</g>
<g filter="url(#filter9_f_184_548)">
<path d="M-235.723 651.517C-135.391 644.415 -35.922 625.161 62.9032 607.789C204.081 582.973 332.612 539.611 452.571 462.294C585.297 376.747 671.462 255.765 772.904 140.384C823.291 83.0732 880.276 31.8608 944.896 -9.78834C970.009 -25.9749 994.482 -42.848 1021.22 -56.5548C1052.02 -72.3486 1111.71 -77.599 1140.54 -55.5156C1149.32 -48.7851 1152.76 -37.5024 1153.7 -27.4557C1161.94 60.0998 1113.38 144.037 1070.79 217.644L1070.4 218.328C1018.47 308.079 976.841 409.745 912.647 492.172C892.985 517.419 870.231 540.985 852.45 567.518C813.42 625.761 792.177 693.591 750.062 749.388C703.903 810.542 671.438 877.397 618.918 934.635C592.856 963.039 566.571 997.426 534.804 1020.11C479.719 1059.46 411.049 1074.16 350.451 1103.25C280.938 1136.63 216.485 1178.84 137.612 1189.51C-1.49054 1208.34 -97.0921 1116.95 -186.484 1027.65C-242.888 971.3 -298.896 898.477 -331.602 827.332C-348.592 790.374 -326.709 735.873 -312.521 701.582C-301.762 675.577 -300.327 669.764 -273.555 668.326C-262.003 667.706 -250.202 653.351 -237.998 651.676C-237.241 651.572 -236.483 651.517 -235.723 651.517Z" fill="#ED9630"/>
</g>
<path opacity="0.3" d="M-281.488 525.446C-171.177 496.087 -23.5811 510.029 81.2342 554.554C147.851 582.853 232.517 633.502 265.253 701.571C290.267 753.585 214.471 766.507 179.593 760.999C105.207 749.252 23.5423 710.059 -6.58003 637.312C-55.6473 518.811 4.70713 347.508 68.8262 245.943C140.464 132.468 256.55 15.6548 396.795 -1.60659C594.785 -25.9752 885.985 140.637 944.072 340.275" stroke="white" stroke-width="2.25" stroke-linecap="round"/>
<path opacity="0.3" d="M-1.96792 2963.97H-2.43153H-41H-41.5204L-41.4996 2963.45C-40.0032 2926.12 -9.16837 2900.5 31.9834 2900.5C52.8417 2900.5 70.4637 2906.37 82.8818 2916.41C95.3069 2926.46 102.5 2940.66 102.5 2957.25C102.5 2974.05 92.2699 2988.39 75.6157 3002.04L75.61 3002.05L55.1467 3018.32C55.1455 3018.32 55.1442 3018.32 55.143 3018.33C48.1971 3024.08 44.2729 3028.75 42.3534 3033.88C40.4338 3039.01 40.4916 3044.68 41.6749 3052.5L41.7618 3053.07H41.1805H14.7759H14.4335L14.3097 3052.76C10.0057 3041.65 7.44289 3032.52 8.19607 3024.29C8.9528 3016.03 13.0468 3008.73 21.8694 3001.27L-1.96792 2963.97ZM-1.96792 2963.97L-1.93296 2963.5C-1.34854 2955.78 1.78796 2949.39 6.90842 2944.93C12.0313 2940.47 19.1768 2937.91 27.8299 2937.91C36.6454 2937.91 43.6425 2940.26 48.4262 2944.24C53.2014 2948.21 55.8112 2953.84 55.8112 2960.5C55.8112 2970.34 50.9241 2976.13 41.7413 2984.4L21.8701 3001.27L-1.96792 2963.97ZM55.3278 3091.06C55.3278 3075.07 42.9142 3063.32 26.0498 3063.32C8.59207 3063.32 -3.52489 3075.07 -3.52489 3091.06C-3.52489 3107.07 9.19991 3118.5 26.0498 3118.5C42.6065 3118.5 55.3278 3107.06 55.3278 3091.06Z" stroke="white"/>
</g>
<defs>
<filter id="filter0_f_184_548" x="-300" y="4025" width="1310" height="677" filterUnits="userSpaceOnUse" color-interpolation-filters="sRGB">
<feFlood flood-opacity="0" result="BackgroundImageFix"/>
<feBlend mode="normal" in="SourceGraphic" in2="BackgroundImageFix" result="shape"/>
<feGaussianBlur stdDeviation="150" result="effect1_foregroundBlur_184_548"/>
</filter>
<filter id="filter1_f_184_548" x="430" y="4025" width="1310" height="677" filterUnits="userSpaceOnUse" color-interpolation-filters="sRGB">
<feFlood flood-opacity="0" result="BackgroundImageFix"/>
<feBlend mode="normal" in="SourceGraphic" in2="BackgroundImageFix" result="shape"/>
<feGaussianBlur stdDeviation="150" result="effect1_foregroundBlur_184_548"/>
</filter>
<filter id="filter2_f_184_548" x="65" y="4025" width="1310" height="677" filterUnits="userSpaceOnUse" color-interpolation-filters="sRGB">
<feFlood flood-opacity="0" result="BackgroundImageFix"/>
<feBlend mode="normal" in="SourceGraphic" in2="BackgroundImageFix" result="shape"/>
<feGaussianBlur stdDeviation="150" result="effect1_foregroundBlur_184_548"/>
</filter>
<filter id="filter3_f_184_548" x="-665" y="2640" width="1581" height="1033" filterUnits="userSpaceOnUse" color-interpolation-filters="sRGB">
<feFlood flood-opacity="0" result="BackgroundImageFix"/>
<feBlend mode="normal" in="SourceGraphic" in2="BackgroundImageFix" result="shape"/>
<feGaussianBlur stdDeviation="150" result="effect1_foregroundBlur_184_548"/>
</filter>
<filter id="filter4_f_184_548" x="699.385" y="1209.05" width="1427.63" height="1215.86" filterUnits="userSpaceOnUse" color-interpolation-filters="sRGB">
<feFlood flood-opacity="0" result="BackgroundImageFix"/>
<feBlend mode="normal" in="SourceGraphic" in2="BackgroundImageFix" result="shape"/>
<feGaussianBlur stdDeviation="150" result="effect1_foregroundBlur_184_548"/>
</filter>
<filter id="filter5_f_184_548" x="118.717" y="1468.76" width="2116.06" height="1276.01" filterUnits="userSpaceOnUse" color-interpolation-filters="sRGB">
<feFlood flood-opacity="0" result="BackgroundImageFix"/>
<feBlend mode="normal" in="SourceGraphic" in2="BackgroundImageFix" result="shape"/>
<feGaussianBlur stdDeviation="150" result="effect1_foregroundBlur_184_548"/>
</filter>
<filter id="filter6_f_184_548" x="-647.516" y="2259.51" width="2157.86" height="1214.35" filterUnits="userSpaceOnUse" color-interpolation-filters="sRGB">
<feFlood flood-opacity="0" result="BackgroundImageFix"/>
<feBlend mode="normal" in="SourceGraphic" in2="BackgroundImageFix" result="shape"/>
<feGaussianBlur stdDeviation="150" result="effect1_foregroundBlur_184_548"/>
</filter>
<filter id="filter7_f_184_548" x="336.876" y="-352.374" width="1395.54" height="883.987" filterUnits="userSpaceOnUse" color-interpolation-filters="sRGB">
<feFlood flood-opacity="0" result="BackgroundImageFix"/>
<feBlend mode="normal" in="SourceGraphic" in2="BackgroundImageFix" result="shape"/>
<feGaussianBlur stdDeviation="108.687" result="effect1_foregroundBlur_184_548"/>
</filter>
<filter id="filter8_f_184_548" x="-477.55" y="-419.594" width="1434.06" height="1399.2" filterUnits="userSpaceOnUse" color-interpolation-filters="sRGB">
<feFlood flood-opacity="0" result="BackgroundImageFix"/>
<feBlend mode="normal" in="SourceGraphic" in2="BackgroundImageFix" result="shape"/>
<feGaussianBlur stdDeviation="108.687" result="effect1_foregroundBlur_184_548"/>
</filter>
<filter id="filter9_f_184_548" x="-699.439" y="-431.933" width="2215.71" height="1985.58" filterUnits="userSpaceOnUse" color-interpolation-filters="sRGB">
<feFlood flood-opacity="0" result="BackgroundImageFix"/>
<feBlend mode="normal" in="SourceGraphic" in2="BackgroundImageFix" result="shape"/>
<feGaussianBlur stdDeviation="180.825" result="effect1_foregroundBlur_184_548"/>
</filter>
<clipPath id="clip0_184_548">
<rect width="1440" height="4377" fill="white"/>
</clipPath>
</defs>
</svg>
